<svg width="24" height="27" fill="none" xmlns="http://www.w3.org/2000/svg"><g clip-path="url(#clip0)"><path d="M23.71 2.216a.99.99 0 00-.492-.278.964.964 0 00-.558.04l-22 8.32a1 1 0 00-.468.38 1.07 1.07 0 000 1.182c.115.174.278.307.468.382l9.6 3.994 3.84 9.984c.072.188.196.35.356.467a.97.97 0 00.544.188.976.976 0 00.562-.195c.165-.122.29-.294.358-.491l8-22.88a1.08 1.08 0 00-.21-1.093zM15 22.923l-2.79-7.28L17 10.66l-1.41-1.466-4.83 5.023-6.96-2.943 17.53-6.583L15 22.922z" fill="#8EC2F2"/></g><defs><clipPath id="clip0"><path fill="#fff" transform="translate(0 .875)" d="M0 0h24v26H0z"/></clipPath></defs></svg>